# xmcd CD database file
#
# Track frame offsets:
#	183
#	13995
#	34728
#	62970
#	73078
#	92515
#	108615
#	135188
#	142903
#	157915
#	176428
#	196598
#	209285
#	223493
#	236968
#	266608
#
# Disc length: 3662 seconds
#
# Revision: 1
# Processed by: cddbd v1.5.2PL0 Copyright (c) Steve Scherf et al.
# Submitted via: CDex 1.51
#
DISCID=e90e4c10
DTITLE=Kazuko Hohki - Love in rainy days
DYEAR=1990
DGENRE=Jazz
TTITLE0=01-singing in the rain
TTITLE1=02-L orage
TTITLE2=03- When it rains
TTITLE3=04-Meme sous la pluie
TTITLE4=05-Rhytms of the rain
TTITLE5=06-Yoneyama sankara
TTITLE6=07- Rain is desire
TTITLE7=08- elephants sous la pluie
TTITLE8=09- It keeps raining
TTITLE9=10-Le cire de madame Hu
TTITLE10=11-Midnight rain
TTITLE11=12-Omoi ame
TTITLE12=13- Walking in the rain
TTITLE13=14- Rain on the railway line
TTITLE14=15- La pluie
TTITLE15=16- Sons d orage
EXTD=YEAR: 1990
EXTT0=
EXTT1=
EXTT2=
EXTT3=
EXTT4=
EXTT5=
EXTT6=
EXTT7=
EXTT8=
EXTT9=
EXTT10=
EXTT11=
EXTT12=
EXTT13=
EXTT14=
EXTT15=
PLAYORDER=
